<svg width="530" height="530" viewBox="0 0 530 530" fill="none" xmlns="http://www.w3.org/2000/svg">
<path d="M269.865 113.298C263.654 118.474 255.062 129.602 248.955 140.367C248.075 142.023 247.04 143.369 246.678 143.369C245.228 143.369 236.016 146.733 232.237 148.597C218.47 155.532 209.516 163.296 200.044 176.494L197.974 179.341L200.561 177.219C207.29 171.629 215.623 167.074 222.61 165.107C227.993 163.658 228.407 163.813 224.836 165.936C214.795 171.888 203.356 183.481 197.249 193.988C191.763 203.46 189.434 211.586 189.071 222.869C188.761 230.788 189.175 235.032 190.779 240.674L191.607 243.521L192.591 239.639C194.454 232.444 197.094 226.44 201.183 220.385C203.719 216.606 205.478 214.743 204.754 216.606C203.719 219.35 203.305 226.958 203.874 232.237C205.375 245.643 211.017 257.288 219.505 264.482C224.37 268.623 232.186 273.385 235.912 274.575L237.102 274.938L236.016 272.712C233.531 267.898 228.977 254.131 229.856 254.131C230.115 254.131 230.322 254.338 230.322 254.597C230.322 255.58 236.74 263.499 239.846 266.449C243.779 270.124 252.164 275.766 262.878 281.925C270.797 286.479 276.852 291.241 278.405 294.191C278.819 294.916 279.337 295.537 279.544 295.537C280.113 295.537 283.426 290.724 285.082 287.411C285.91 285.755 287.256 282.442 288.084 280.01C289.378 276.024 289.533 274.886 289.533 268.105C289.585 260.963 289.481 260.394 287.929 255.942C287.049 253.354 286.376 251.232 286.479 251.129C286.531 251.077 287.152 251.905 287.877 252.94C288.602 254.027 290.775 256.667 292.69 258.789C294.605 260.911 296.883 263.706 297.711 264.948L299.16 267.277V263.913C299.16 260.083 298.384 256.563 295.485 246.885C293.053 238.966 292.483 234.515 293.467 231.099C294.243 228.252 296.676 225.975 299.781 225.095C302.887 224.267 313.342 224.836 319.087 226.13C331.302 228.977 331.923 229.028 335.391 228.097C339.169 227.01 342.947 224.732 348.537 220.022C353.092 216.192 358.578 210.033 359.044 208.17C359.561 206.151 357.802 204.547 347.657 197.715C337.357 190.779 327.265 183.016 325.608 180.738C325.091 179.962 323.9 177.012 323.02 174.165C320.433 166.039 319.346 164.383 313.911 160.656C308.166 156.723 293.156 148.597 287.411 146.319L283.115 144.663V141.816C283.115 138.09 281.821 130.326 280.269 124.322C278.561 117.904 275.3 110.244 274.316 110.244C273.902 110.244 271.884 111.642 269.865 113.298ZM273.799 131.672C274.472 137.003 274.265 148.441 273.436 150.512L272.971 151.702L272.039 150.667C271.47 150.046 270.797 148.493 270.435 147.147L269.813 144.663L268.985 146.319C267.95 148.286 265.569 151.133 264.948 151.133C263.758 151.133 265.052 142.075 267.174 135.864C267.795 134.156 269.192 130.896 270.331 128.618C272.712 123.753 272.815 123.856 273.799 131.672ZM303.663 172.871C305.268 173.44 307.079 174.217 307.752 174.683C308.994 175.459 314.739 182.809 314.429 183.119C314.325 183.223 312.772 182.912 310.961 182.498C305.733 181.152 301.541 178.875 292.69 172.664L290.62 171.163L295.744 171.525C298.591 171.732 302.059 172.302 303.663 172.871ZM292.69 187.622C295.071 188.14 299.574 189.951 305.889 193.005C316.395 198.129 327.989 202.891 336.426 205.53C339.945 206.617 342.119 207.601 342.637 208.273C343.051 208.895 344.345 210.396 345.483 211.638L347.554 213.863L345.225 215.934C341.343 219.401 340.411 219.712 334.614 219.66C329.801 219.608 328.869 219.453 320.588 216.71C309.512 213.087 306.354 212.518 298.746 212.828C289.792 213.19 283.063 215.882 277.629 221.265C272.453 226.389 270.693 231.306 270.693 240.674C270.693 243.935 270.9 247.506 271.159 248.541C271.884 251.646 271.004 250.818 268.985 246.471C266.604 241.347 265.621 238.345 265.259 234.929C265.052 233.376 264.793 231.771 264.638 231.357C264.172 229.96 261.946 235.188 261.066 239.897C260.031 245.125 259.876 245.073 257.236 238.811C255.062 233.531 254.286 228.148 255.062 223.542C256.149 217.124 260.238 210.81 265.466 207.445L267.795 205.996H264.431C261.687 205.996 260.497 206.307 257.65 207.756C255.735 208.688 253.199 210.24 252.009 211.224L249.887 212.932L250.197 211.12C250.922 207.497 254.027 202.114 257.236 198.854C263.033 193.005 270.383 189.382 279.854 187.674C285.134 186.69 288.291 186.69 292.69 187.622ZM244.97 189.071C232.444 205.064 227.217 215.83 227.217 225.612C227.217 228.562 226.492 227.89 225.716 224.215C224.888 220.281 224.991 212.414 225.923 208.843C228.045 200.613 233.272 194.092 240.933 190.055C245.746 187.57 246.264 187.415 244.97 189.071Z" fill="black"/>
<path d="M303.56 124.633C299.367 126.962 296.521 129.084 292.225 133.069L288.188 136.848L288.498 139.177C289.119 143.68 290.103 144.818 296.055 147.872C299.005 149.373 301.593 150.408 301.8 150.201C302.524 149.528 305.268 138.866 306.096 133.742C307.183 126.496 307.39 123.184 306.717 123.184C306.406 123.184 305.009 123.856 303.56 124.633Z" fill="black"/>
<path d="M225.975 309.305C214.588 311.53 205.479 320.433 203.149 331.509C202.218 336.063 202.218 338.341 203.149 342.896C206.255 357.595 219.401 366.808 235.809 365.772C252.837 364.634 265 352.833 265 337.357C265 329.646 262.257 323.228 256.512 317.482C248.955 309.926 237.827 306.924 225.975 309.305ZM240.984 314.222C248.386 317.741 253.096 326.695 253.096 337.202C253.096 347.761 248.489 356.301 240.777 360.079C238.293 361.321 237.206 361.528 233.687 361.528C230.167 361.528 229.08 361.27 226.544 359.976C221.161 357.284 217.176 351.85 215.571 345.121C214.691 341.239 214.588 333.941 215.364 330.111C216.71 323.642 221.161 317.224 226.13 314.532C231.15 311.789 235.705 311.686 240.984 314.222Z" fill="black"/>
<path d="M110.244 309.978C110.244 310.236 111.279 311.064 112.521 311.789C113.815 312.514 115.316 313.808 115.886 314.584C116.455 315.412 119.457 322.813 122.562 331.043C125.72 339.272 129.291 348.692 130.533 351.953C131.827 355.214 133.483 359.613 134.26 361.632L135.709 365.41H138.142H140.574L146.682 349.986C150.098 341.55 153.255 333.683 153.772 332.544L154.704 330.525L155.273 332.026C157.137 337.254 167.333 364.271 167.644 364.893C168.058 365.669 171.681 365.721 172.457 364.996C172.664 364.789 176.442 355.059 180.894 343.413C190.779 317.482 192.28 314.17 195.438 311.944C196.68 311.064 197.715 310.185 197.715 309.926C197.715 309.719 194.247 309.512 189.951 309.512C185.707 309.512 182.188 309.667 182.188 309.822C182.188 309.978 182.912 310.806 183.74 311.582C186.432 314.118 186.121 315.878 179.341 333.838C176.132 342.533 173.337 349.262 173.182 348.848C172.509 346.933 163.969 324.314 162.312 319.967C161.277 317.275 160.449 314.739 160.449 314.325C160.449 313.859 161.019 312.721 161.795 311.737C162.52 310.806 162.985 310.029 162.83 310.029C157.603 309.771 145.698 310.081 145.543 310.495C145.439 310.806 145.957 311.582 146.682 312.203C147.406 312.928 148.855 315.671 150.046 318.88L152.168 324.366L151.236 326.644C150.667 327.886 148.39 333.631 146.164 339.376C143.938 345.173 141.92 349.883 141.765 349.883C141.299 349.883 128.877 316.085 128.877 314.843C128.877 313.704 130.792 311.893 132.552 311.323C133.069 311.116 133.535 310.65 133.535 310.236C133.535 309.615 131.672 309.512 121.89 309.512C115.265 309.512 110.244 309.719 110.244 309.978Z" fill="black"/>
<path d="M275.869 309.771C275.869 309.926 276.801 310.961 277.888 311.996C279.44 313.445 280.01 314.429 280.269 316.24C280.424 317.534 280.527 327.782 280.424 339.014C280.269 357.698 280.165 359.613 279.337 360.907C278.819 361.735 277.836 362.615 277.111 362.926C276.438 363.236 275.869 363.702 275.869 363.961C275.869 364.168 284.927 364.375 296.003 364.375H316.085L317.172 357.543C317.793 353.816 318.155 350.607 318 350.452C317.793 350.297 317.327 350.711 316.861 351.436C316.396 352.16 314.843 353.92 313.445 355.317C309.822 358.94 307.079 359.769 298.021 360.079L290.879 360.39V338.962C290.879 327.161 291.138 316.603 291.396 315.464C291.707 314.118 292.483 312.824 293.674 311.789C294.709 310.909 295.537 310.029 295.537 309.822C295.537 309.667 291.138 309.512 285.703 309.512C280.32 309.512 275.869 309.615 275.869 309.771Z" fill="black"/>
<path d="M328.662 310.288C328.662 310.65 329.231 311.168 329.904 311.582C332.854 313.135 332.854 313.445 332.699 337.564C332.544 358.992 332.492 359.665 331.457 361.114C330.888 361.891 329.904 362.771 329.283 363.081C328.662 363.34 328.145 363.754 328.145 363.961C328.145 364.22 332.699 364.375 338.237 364.375C343.775 364.375 348.33 364.22 348.33 363.961C348.278 363.754 347.554 363.133 346.622 362.563C343.879 360.804 343.672 359.976 343.672 348.382V337.823L349.572 338.134C352.833 338.289 356.042 338.703 356.715 339.014C358.475 339.945 360.286 341.705 360.804 342.999C361.891 345.897 362.305 343.931 362.305 335.908C362.305 331.354 362.149 327.627 361.942 327.627C361.684 327.627 361.114 328.61 360.597 329.749C359.096 332.906 356.715 333.89 349.572 334.2L343.672 334.511V324.056V313.652H349.779C358.837 313.652 362.719 315.205 365.721 319.915C367.688 323.072 368.153 322.555 367.739 317.586C367.532 315.153 367.222 312.514 367.015 311.634L366.704 310.081L347.709 309.926C333.941 309.771 328.662 309.874 328.662 310.288Z" fill="black"/>
<path d="M398.69 309.926L376.9 310.029L376.538 315.412C376.072 321.83 376.228 322.606 377.625 320.95C382.645 314.739 384.457 313.704 390.15 313.652H393.929L393.773 336.995L393.618 360.338L391.91 361.839C390.978 362.667 389.892 363.34 389.478 363.34C389.063 363.34 388.701 363.547 388.701 363.857C388.701 364.427 409.404 364.841 409.715 364.271C409.87 364.064 409.249 363.547 408.421 363.133C407.593 362.667 406.402 361.684 405.833 360.959C404.746 359.613 404.746 359.096 404.746 336.633V313.652H407.748C409.353 313.652 411.578 313.911 412.717 314.222C414.839 314.791 419.497 318.776 420.015 320.433C420.222 320.95 420.739 321.416 421.205 321.416C422.033 321.416 422.085 320.95 421.671 315.826C421.412 312.772 421.05 310.185 420.895 310.029C420.687 309.874 410.698 309.822 398.69 309.926Z" fill="black"/>
<path d="M158.379 385.182C151.495 387.148 148.855 395.999 153.617 401.278C156.826 404.85 164.952 405.212 167.644 401.951C168.265 401.227 168.213 400.968 167.437 400.14C166.557 399.156 166.557 399.156 164.952 400.14C163.969 400.709 162.364 401.123 161.07 401.123C159.155 401.123 158.482 400.812 157.033 399.363C155.532 397.862 155.273 397.241 155.273 395.067C155.273 393.722 155.584 392.014 155.946 391.341C157.499 388.235 161.588 387.148 164.952 388.856C166.453 389.633 166.608 389.633 167.488 388.649C168.42 387.614 168.42 387.562 167.281 386.579C165.987 385.544 162.882 384.561 161.226 384.612C160.656 384.612 159.362 384.871 158.379 385.182Z" fill="black"/>
<path d="M185.759 385.389C177.633 387.873 176.701 399.208 184.258 403.245C187.674 405.108 193.315 404.384 196.369 401.692C199.009 399.363 200.044 394.136 198.543 390.564C197.611 388.339 194.506 385.803 191.711 385.13C189.02 384.457 188.761 384.457 185.759 385.389ZM191.763 388.391C194.144 389.426 195.645 391.962 195.645 395.016C195.645 397.138 195.386 397.707 193.833 399.312C192.177 400.968 191.711 401.123 189.071 401.123C186.432 401.123 186.069 400.968 184.465 399.26C182.912 397.655 182.705 397.086 182.705 394.705C182.705 391.548 183.947 389.529 186.535 388.391C188.605 387.511 189.589 387.511 191.763 388.391Z" fill="black"/>
<path d="M215.261 385.026C211.689 386.165 210.292 388.287 210.861 391.496C211.275 393.773 213.035 395.171 216.503 395.947C221.109 397.034 222.559 398.483 220.695 400.295C219.557 401.485 216.089 401.33 213.708 399.984L211.741 398.897L210.706 400.14L209.671 401.382L210.81 402.262C212.725 403.763 215.261 404.332 218.78 404.125C221.73 403.918 222.352 403.711 223.387 402.469C224.939 400.709 225.095 397.138 223.697 395.43C223.18 394.809 221.006 393.722 218.677 392.945C214.433 391.496 213.501 390.513 214.795 388.96C215.623 387.925 218.78 387.977 220.747 389.012C222.196 389.736 222.352 389.736 223.18 388.701C224.474 387.097 224.37 386.89 222.196 385.958C219.66 384.871 216.969 384.509 215.261 385.026Z" fill="black"/>
<path d="M346.519 384.819C346.26 384.923 345.38 385.13 344.604 385.285C342.688 385.699 339.531 388.546 338.703 390.616C337.823 392.635 337.771 396.361 338.548 398.38C339.272 400.347 341.498 402.676 343.517 403.504C346.881 404.953 352.678 404.125 354.489 401.951C355.11 401.227 355.059 400.968 354.282 400.14C353.402 399.156 353.402 399.156 351.798 400.14C348.485 402.158 343.982 401.02 342.43 397.811C340.152 392.997 343.154 388.028 348.434 388.028C349.469 388.028 350.97 388.442 351.746 388.96C353.04 389.788 353.144 389.788 354.127 388.805C355.317 387.614 355.059 386.941 353.092 385.906C351.643 385.182 347.45 384.457 346.519 384.819Z" fill="black"/>
<path d="M369.189 385.544C366.756 386.683 365.928 387.873 365.928 390.409C365.928 393.049 367.584 394.757 371 395.688C375.606 396.982 376.279 397.345 376.279 398.69C376.279 399.363 376.021 400.14 375.658 400.502C374.675 401.485 371.259 401.227 368.93 400.036L366.808 398.949L365.876 400.14C364.996 401.33 364.996 401.434 365.824 402.106C367.636 403.504 370.12 404.229 373.226 404.229C376.124 404.229 376.538 404.073 378.143 402.469C381.817 398.794 379.902 394.757 373.433 392.687C369.706 391.496 368.774 390.513 370.068 388.96C370.897 387.925 373.847 387.977 375.865 389.012C377.418 389.84 377.522 389.788 378.401 388.649C379.592 387.045 378.971 386.32 375.606 385.337C372.294 384.354 371.828 384.354 369.189 385.544Z" fill="black"/>
<path d="M236.533 394.653V404.229H238.345H240.156V397.759C240.156 391.962 240.57 389.943 241.347 392.014C241.864 393.359 246.471 399.104 246.937 398.949C247.195 398.846 248.696 396.931 250.249 394.705L253.096 390.564V397.396V404.229H254.907H256.719V394.653V385.078H254.804C252.94 385.078 252.682 385.285 250.042 389.219C248.489 391.496 247.04 393.359 246.833 393.359C246.626 393.359 245.125 391.496 243.521 389.219C240.726 385.233 240.519 385.078 238.552 385.078H236.533V394.653Z" fill="black"/>
<path d="M269.658 394.653V404.229H277.163H284.668V402.676V401.123H278.975H273.281V398.794V396.465L277.577 396.361C279.906 396.361 282.132 396.31 282.494 396.31C282.856 396.361 283.115 395.688 283.115 394.602V392.842H278.198H273.281V390.513V388.184H278.716H284.15V386.631V385.078H276.904H269.658V394.653Z" fill="black"/>
<path d="M295.02 386.631V388.184H298.125H301.23V396.206V404.229H303.042H304.854V396.206V388.184H307.959H311.064V386.631V385.078H303.042H295.02V386.631Z" fill="black"/>
<path d="M322.451 394.653V404.229H324.263H326.074V394.653V385.078H324.263H322.451V394.653Z" fill="black"/>
</svg>
